HIERARCHY
ROOT hip
{
	OFFSET 0.000000 0.000000 0.000000 
	CHANNELS 6 Xposition Yposition Zposition Xrotation Zrotation Yrotation
	JOINT abdomen
	{
		OFFSET 0.000000 3.402643 0.000000 
		CHANNELS 3 Xrotation Zrotation Yrotation
		JOINT chest
		{
			OFFSET 0.000000 8.438565 -0.680529 
			CHANNELS 3 Xrotation Zrotation Yrotation
			JOINT neck
			{
				OFFSET 0.000000 10.207942 -0.272212 
				CHANNELS 3 Xrotation Zrotation Yrotation
				JOINT head
				{
					OFFSET 0.000000 3.130431 0.000000 
					CHANNELS 3 Xrotation Zrotation Yrotation
					End Site
					{
						OFFSET 0.000000 3.130435 0.000000 
					}
				}
			}
			JOINT lCollar
			{
				OFFSET 3.470700 6.669187 -0.816635 
				CHANNELS 3 Yrotation Zrotation Xrotation
				JOINT lShldr
				{
					OFFSET 3.198488 0.000000 0.000000 
					CHANNELS 3 Zrotation Yrotation Xrotation
					JOINT lForeArm
					{
						OFFSET 10.139888 0.000000 0.000000 
						CHANNELS 3 Yrotation Zrotation Xrotation
						JOINT lHand
						{
							OFFSET 8.370511 0.000000 0.000000 
							CHANNELS 3 Zrotation Yrotation Xrotation
							End Site
							{
								OFFSET 4.083176 0.000000 0.000000 
							}
						}
					}
				}
			}
			JOINT rCollar
			{
				OFFSET -3.470700 6.669187 -0.816635 
				CHANNELS 3 Yrotation Zrotation Xrotation
				JOINT rShldr
				{
					OFFSET -3.198488 0.000000 0.000000 
					CHANNELS 3 Zrotation Yrotation Xrotation
					JOINT rForeArm
					{
						OFFSET -10.139888 0.000000 0.000000 
						CHANNELS 3 Yrotation Zrotation Xrotation
						JOINT rHand
						{
							OFFSET -8.370511 0.000000 0.000000 
							CHANNELS 3 Zrotation Yrotation Xrotation
							End Site
							{
								OFFSET -4.083176 0.000000 0.000000 
							}
						}
					}
				}
			}
		}
	}
	JOINT lThigh
	{
		OFFSET 5.308129 -1.633274 1.361059 
		CHANNELS 3 Xrotation Zrotation Yrotation
		JOINT lShin
		{
			OFFSET -2.041588 -20.007561 0.000000 
			CHANNELS 3 Xrotation Zrotation Yrotation
			JOINT lFoot
			{
				OFFSET 0.000000 -19.190928 -1.224953 
				CHANNELS 3 Xrotation Yrotation Zrotation
				End Site
				{
					OFFSET 0.000000 -2.449906 4.627600 
				}
			}
		}
	}
	JOINT rThigh
	{
		OFFSET -5.308129 -1.633274 1.361059 
		CHANNELS 3 Xrotation Zrotation Yrotation
		JOINT rShin
		{
			OFFSET 2.041588 -20.007561 0.000000 
			CHANNELS 3 Xrotation Zrotation Yrotation
			JOINT rFoot
			{
				OFFSET 0.000000 -19.190928 -1.224953 
				CHANNELS 3 Xrotation Yrotation Zrotation
				End Site
				{
					OFFSET 0.000000 -2.449906 4.627600 
				}
			}
		}
	}
}
MOTION
Frames: 16
Frame Time: 0.016667
0.427189 43.344009 3.261368 2.480600 -0.595145 -1.656740 -23.291100 0.441340 0.287910 16.532700 0.944931 0.187445 19.354700 2.294440 -2.733240 13.207900 4.849760 -0.932373 2.000000 -2.000000 0.000000 -85.744202 7.441030 -159.255005 47.285599 -0.307590 0.100508 0.067444 -0.063365 -160.182999 -2.000000 2.000000 0.000000 -89.966202 -165.134995 -3.328600 -54.580601 0.294084 0.111419 179.904007 179.893005 1.037330 5.707009 2.459074 -3.603599 -3.544995 4.335829 -0.381469 -7.602546 13.878431 2.334615 7.854268 -1.046365 2.391660 -10.150256 -4.347790 0.871571 -9.953485 -14.539900 -2.974926 
0.430503 43.348770 3.221623 2.461040 -0.517101 -1.760590 -23.271700 0.455895 0.271147 16.474001 0.974085 0.184393 19.494801 2.238790 -2.802910 13.266100 4.810280 -0.972737 2.000000 -2.000000 0.000000 -85.566704 6.604700 -157.671005 48.066898 -0.306212 0.101763 0.068266 -0.065244 -160.916000 -2.000000 2.000000 0.000000 -90.054497 -165.817993 -3.239020 -55.342300 0.292596 0.112463 179.897003 179.875000 -2.644290 5.664209 2.363297 -3.513230 -3.458645 4.317404 -0.370677 -7.673617 13.834143 2.344307 7.844820 -1.165605 2.602254 -10.211640 -4.352791 0.862100 -9.951040 -14.659850 -2.977464 
0.438361 43.350567 3.196830 2.451300 -0.575645 -1.782550 -23.252399 0.491315 0.171115 16.493601 0.974109 0.145663 19.602699 2.150080 -2.850420 13.284900 4.761780 -0.998466 2.000000 -2.000000 0.000000 -85.476799 5.427090 -155.830994 48.877399 -0.304764 0.103045 0.068816 -0.066466 -161.393997 -2.000000 2.000000 0.000000 -90.328499 -166.813995 -2.914280 -56.104000 0.291094 0.113486 179.889008 179.878006 -6.570100 5.639152 2.406455 -3.487590 -3.428988 4.328447 -0.371247 -7.668148 13.861590 2.346936 7.806113 -1.150345 2.621483 -10.159087 -4.276625 0.863984 -9.988431 -14.684415 -3.016909 
0.446218 43.352367 3.172059 2.431790 -0.634194 -1.794620 -23.233200 0.526752 0.071125 16.513100 0.964391 0.097855 19.711201 2.060810 -2.907980 13.303800 4.713280 -1.014460 2.000000 -2.000000 0.000000 -85.425903 4.259160 -154.003006 49.688000 -0.303298 0.104306 0.069376 -0.067683 -161.873001 -2.000000 2.000000 0.000000 -90.602501 -167.809006 -2.599300 -56.865700 0.289579 0.114490 -0.119558 0.129080 169.514008 5.633350 2.451270 -3.472687 -3.433972 4.324630 -0.380481 -7.668389 13.875516 2.342645 7.791296 -1.098808 2.647032 -10.140090 -4.270628 0.853502 -10.024816 -14.713207 -3.047723 
0.451345 43.354420 3.137302 2.392680 -0.536641 -1.926810 -23.213699 0.522074 0.030848 16.483801 0.983838 0.076444 19.819700 2.111400 -2.887030 13.353200 4.741430 -1.015480 2.000000 -2.000000 0.000000 -85.463600 3.226510 -152.828995 50.107899 -0.302532 0.104952 0.069608 -0.068178 -162.067993 -2.000000 2.000000 0.000000 -90.749397 -168.688004 -2.548270 -57.188000 0.288934 0.114909 -0.123765 0.132082 167.667999 5.656130 2.324301 -3.349656 -3.500406 4.346599 -0.371886 -7.583572 13.881343 2.322591 7.789638 -1.177602 2.814100 -10.197990 -4.359891 0.863169 -9.936679 -14.768840 -2.997461 
0.456474 43.356487 3.102556 2.363350 -0.448837 -2.059620 -23.184500 0.526408 -0.013191 16.464199 1.003300 0.055184 19.929001 2.170420 -2.872280 13.402600 4.769570 -1.006690 2.000000 -2.000000 0.000000 -85.511002 2.203610 -151.645004 50.527802 -0.301761 0.105591 0.069853 -0.068698 -162.272995 -2.000000 2.000000 0.000000 -90.886497 -169.565994 -2.497230 -57.500500 0.288306 0.115311 -0.128044 0.134932 165.832001 5.746344 2.234887 -3.226564 -3.610985 4.332206 -0.380717 -7.536795 13.898457 2.345196 7.736693 -1.338512 2.967329 -10.108533 -4.271349 0.873377 -9.993143 -14.832959 -3.037581 
0.459374 43.356613 3.088671 2.382910 -0.507373 -2.081750 -23.096701 0.515938 -0.124563 16.610800 0.935278 0.003858 20.004499 2.030520 -2.904630 13.460200 4.691580 -1.014590 2.000000 -2.000000 0.000000 -85.626801 0.858366 -150.490005 50.752399 -0.301346 0.105931 0.070277 -0.069586 -162.625000 -2.000000 2.000000 0.000000 -90.955399 -170.757996 -2.533290 -57.559101 0.288188 0.115386 -0.131125 0.136865 164.533005 5.709064 2.286451 -3.199193 -3.575643 4.323372 -0.380742 -7.489751 13.859890 2.320638 7.707295 -1.281372 2.943272 -10.118530 -4.272125 0.863632 -9.965557 -14.780222 -3.018170 
0.462273 43.356735 3.074786 2.402460 -0.565908 -2.113680 -23.018499 0.505464 -0.235939 16.757401 0.857487 -0.047169 20.080299 1.899910 -2.934010 13.508100 4.623390 -1.012060 2.000000 -2.000000 0.000000 -85.781700 -0.477123 -149.324997 50.967300 -0.300949 0.106255 0.070707 -0.070472 -162.975998 -2.000000 2.000000 0.000000 -91.014397 -171.940002 -2.569370 -57.607899 0.288090 0.115448 -0.134249 0.138727 163.235001 5.661123 2.335507 -3.181379 -3.542281 4.325307 -0.370623 -7.446672 13.815726 2.306259 7.678841 -1.214533 2.920518 -10.138286 -4.275630 0.863980 -9.935096 -14.751573 -3.010791 
0.425897 43.350693 3.074146 2.295030 -0.546436 -1.945820 -22.910900 0.472427 -0.379739 16.864700 0.955046 -0.120207 20.109501 1.898860 -2.931140 13.547200 4.613150 -1.000760 2.000000 -2.000000 0.000000 -85.976402 -1.384340 -148.845001 50.938000 -0.301003 0.106211 0.070984 -0.071037 -163.201004 -2.000000 2.000000 0.000000 -91.102501 -172.759995 -2.430570 -57.539600 0.288227 0.115361 -0.135220 0.139287 162.834000 5.698368 2.323522 -3.342287 -3.452107 4.422091 -0.375509 -7.418107 13.816669 2.249104 7.934347 -1.129363 3.243580 -10.275816 -4.426838 0.870478 -10.216269 -15.067736 -3.088896 
0.389520 43.344524 3.073494 2.187590 -0.526959 -1.787800 -22.812901 0.435949 -0.532708 16.972000 1.052620 -0.202645 20.148001 1.907290 -2.914230 13.576600 4.612690 -0.988640 2.000000 -2.000000 0.000000 -86.180901 -2.281790 -148.354996 50.898899 -0.301075 0.106152 0.071264 -0.071600 -163.425995 -2.000000 2.000000 0.000000 -91.190697 -173.589005 -2.291750 -57.471199 0.288365 0.115273 -0.136196 0.139840 162.434006 5.770855 2.385471 -3.506971 -3.381166 4.328649 -0.371194 -7.413607 13.787480 2.268286 8.096764 -1.151168 3.566510 -10.247720 -4.368665 0.873864 -10.600606 -15.381446 -3.257837 
0.379417 43.345806 3.058531 2.158280 -0.497694 -1.815720 -22.754000 0.414331 -0.618217 17.011101 1.052670 -0.240990 20.184099 1.825350 -2.911860 13.605300 4.573710 -0.983005 2.000000 -2.000000 0.000000 -86.600998 -3.111900 -148.373001 50.654800 -0.301527 0.105784 0.071130 -0.071331 -163.317993 -2.000000 2.000000 0.000000 -91.415497 -174.487000 -1.830480 -57.236801 0.288836 0.114972 -0.136840 0.140200 162.169998 5.687725 2.355601 -3.515473 -3.143323 4.323517 -0.341158 -7.560858 13.760099 2.317737 8.152561 -1.166355 3.587953 -10.320702 -4.371959 0.873881 -10.581418 -15.408707 -3.257584 
0.369315 43.347095 3.043590 2.128980 -0.478185 -1.834260 -22.695101 0.401730 -0.707407 17.050200 1.062460 -0.289698 20.230101 1.743110 -2.908350 13.644100 4.544220 -0.975009 2.000000 -2.000000 0.000000 -87.021004 -3.942020 -148.391006 50.410599 -0.301976 0.105413 0.070984 -0.071037 -163.201004 -2.000000 2.000000 0.000000 -91.650002 -175.384003 -1.369210 -57.002499 0.289306 0.114668 -0.137486 0.140558 161.906006 5.557832 2.314519 -3.503049 -2.849485 4.370863 -0.333555 -7.691751 13.750809 2.308297 8.217321 -1.188899 3.608786 -10.406136 -4.372094 0.893708 -10.557146 -15.450378 -3.264960 
0.365119 43.349155 3.038613 2.158270 -0.448900 -1.911520 -22.704599 0.369956 -0.736548 17.050200 1.033220 -0.307438 20.220200 1.780760 -2.886060 13.634400 4.554000 -0.974156 2.000000 -2.000000 0.000000 -87.245796 -4.352370 -148.488007 50.293400 -0.302192 0.105235 0.070851 -0.070767 -163.093994 -2.000000 2.000000 0.000000 -91.816101 -175.802994 -0.879860 -56.934101 0.289442 0.114579 -0.137966 0.140821 161.710999 5.479832 2.280719 -3.443419 -2.730977 4.365001 -0.313809 -7.750916 13.708563 2.328546 8.162174 -1.218792 3.640790 -10.426831 -4.372622 0.883878 -10.506671 -15.408298 -3.223423 
0.360925 43.351208 3.033648 2.197320 -0.419613 -1.998590 -22.714100 0.343764 -0.778595 17.050200 1.003980 -0.334943 20.210699 1.808600 -2.876880 13.634700 4.573260 -0.961137 2.000000 -2.000000 0.000000 -87.460800 -4.762730 -148.585007 50.166500 -0.302424 0.105041 0.070719 -0.070496 -162.985992 -2.000000 2.000000 0.000000 -91.991898 -176.212006 -0.400299 -56.875500 0.289560 0.114503 -0.138446 0.141082 161.516006 5.373001 2.243530 -3.362857 -2.559166 4.377162 -0.314730 -7.842745 13.680040 2.328776 8.127570 -1.250942 3.653965 -10.472949 -4.365081 0.902869 -10.448407 -15.412253 -3.216439 
0.354196 43.353401 3.033119 2.226620 -0.419605 -2.116000 -22.714100 0.316740 -0.767287 17.069901 0.916270 -0.329257 20.242201 1.842250 -2.889720 13.654500 4.582580 -0.967716 2.000000 -2.000000 0.000000 -87.499802 -5.055440 -148.457001 50.225101 -0.302317 0.105131 0.070731 -0.070521 -162.996002 -2.000000 2.000000 0.000000 -92.128700 -176.503006 0.186382 -56.963402 0.289384 0.114617 -0.139217 0.141497 161.203003 5.380857 2.267933 -3.242747 -2.529046 4.315501 -0.301769 -7.950994 13.617042 2.420682 8.077655 -1.257815 3.649852 -10.504022 -4.366068 0.893054 -10.316036 -15.340859 -3.162414 
0.347469 43.355579 3.032592 2.255920 -0.419596 -2.233400 -22.714001 0.289715 -0.755979 17.079700 0.828551 -0.323772 20.273800 1.885040 -2.898830 13.674100 4.582270 -0.966156 2.000000 -2.000000 0.000000 -87.538696 -5.348150 -148.330002 50.283699 -0.302209 0.105220 0.070743 -0.070546 -163.005997 -2.000000 2.000000 0.000000 -92.255699 -176.804993 0.782856 -57.051300 0.289208 0.114731 -0.139990 0.141907 160.891006 5.295264 2.232159 -3.143145 -2.424390 4.385961 -0.295320 -8.029255 13.584023 2.383230 8.038693 -1.255230 3.647736 -10.556896 -4.366909 0.903396 -10.151027 -15.296907 -3.094029 
